<svg width="168" height="46" viewBox="0 0 168 46" fill="none" xmlns="http://www.w3.org/2000/svg">
<path d="M-0.000133209 44.3635V-0.000112295H17.7627C21.0264 -0.000112295 23.7486 0.483671 25.9292 1.45124C28.1098 2.4188 29.7489 3.76184 30.8465 5.48036C31.944 7.18443 32.4928 9.14845 32.4928 11.3724C32.4928 13.1054 32.1462 14.6289 31.453 15.9431C30.7598 17.2428 29.8067 18.3114 28.5936 19.149C27.395 19.9722 26.0231 20.5571 24.4779 20.9037V21.3369C26.1675 21.4091 27.7488 21.8857 29.2218 22.7666C30.7093 23.6475 31.9151 24.8822 32.8394 26.4708C33.7636 28.0449 34.2257 29.9222 34.2257 32.1029C34.2257 34.4568 33.6408 36.558 32.4711 38.4065C31.3158 40.2405 29.6045 41.6919 27.3372 42.7605C25.0699 43.8292 22.2756 44.3635 18.9541 44.3635H-0.000133209ZM9.37948 36.6952H17.0261C19.64 36.6952 21.5463 36.197 22.7449 35.2005C23.9435 34.1896 24.5428 32.8466 24.5428 31.1714C24.5428 29.9439 24.2468 28.8608 23.6547 27.9221C23.0626 26.9834 22.2178 26.2469 21.1203 25.7126C20.0372 25.1783 18.7447 24.9111 17.2428 24.9111H9.37948V36.6952ZM9.37948 18.5642H16.333C17.6182 18.5642 18.7591 18.3403 19.7555 17.8926C20.7664 17.4305 21.5607 16.7807 22.1384 15.9431C22.7305 15.1055 23.0265 14.1018 23.0265 12.9321C23.0265 11.3291 22.4561 10.0366 21.3152 9.05458C20.1888 8.07257 18.5858 7.58156 16.5063 7.58156H9.37948V18.5642ZM55.1891 45.0134C51.8242 45.0134 48.9143 44.2985 46.4593 42.8689C44.0187 41.4247 42.1341 39.4174 40.8055 36.8468C39.4769 34.2618 38.8126 31.2653 38.8126 27.8571C38.8126 24.4201 39.4769 21.4163 40.8055 18.8458C42.1341 16.2608 44.0187 14.2534 46.4593 12.8238C48.9143 11.3796 51.8242 10.6576 55.1891 10.6576C58.5539 10.6576 61.4566 11.3796 63.8972 12.8238C66.3522 14.2534 68.244 16.2608 69.5726 18.8458C70.9012 21.4163 71.5655 24.4201 71.5655 27.8571C71.5655 31.2653 70.9012 34.2618 69.5726 36.8468C68.244 39.4174 66.3522 41.4247 63.8972 42.8689C61.4566 44.2985 58.5539 45.0134 55.1891 45.0134ZM55.2324 37.8649C56.7632 37.8649 58.0412 37.4317 59.0665 36.5652C60.0919 35.6843 60.8645 34.4857 61.3844 32.9693C61.9187 31.453 62.1859 29.7273 62.1859 27.7921C62.1859 25.857 61.9187 24.1313 61.3844 22.6149C60.8645 21.0986 60.0919 19.9 59.0665 19.0191C58.0412 18.1381 56.7632 17.6977 55.2324 17.6977C53.6872 17.6977 52.3874 18.1381 51.3332 19.0191C50.2935 19.9 49.5064 21.0986 48.9721 22.6149C48.4522 24.1313 48.1923 25.857 48.1923 27.7921C48.1923 29.7273 48.4522 31.453 48.9721 32.9693C49.5064 34.4857 50.2935 35.6843 51.3332 36.5652C52.3874 37.4317 53.6872 37.8649 55.2324 37.8649ZM87.0538 44.9917C84.9309 44.9917 83.0391 44.6235 81.3783 43.887C79.7176 43.136 78.4034 42.0313 77.4359 40.5727C76.4827 39.0997 76.0062 37.2656 76.0062 35.0706C76.0062 33.2221 76.3455 31.6696 77.0243 30.4132C77.703 29.1568 78.6273 28.146 79.797 27.3806C80.9668 26.6152 82.2954 26.0375 83.7828 25.6476C85.2847 25.2577 86.8588 24.9833 88.5051 24.8245C90.4402 24.6223 91.9999 24.4345 93.1841 24.2613C94.3683 24.0735 95.2275 23.7991 95.7619 23.4381C96.2962 23.0771 96.5633 22.5427 96.5633 21.8351V21.7051C96.5633 20.3332 96.1301 19.2718 95.2636 18.5208C94.4116 17.7699 93.1985 17.3944 91.6244 17.3944C89.9637 17.3944 88.6423 17.7627 87.6603 18.4992C86.6783 19.2212 86.0284 20.131 85.7107 21.2286L77.1759 20.5354C77.6092 18.5136 78.4612 16.7662 79.732 15.2932C81.0029 13.8058 82.6419 12.6649 84.6493 11.8706C86.6711 11.0619 89.0106 10.6576 91.6677 10.6576C93.5162 10.6576 95.2853 10.8742 96.9749 11.3074C98.679 11.7407 100.188 12.4122 101.502 13.322C102.831 14.2318 103.878 15.4015 104.643 16.8312C105.409 18.2465 105.791 19.9433 105.791 21.9218V44.3635H97.0399V39.7495H96.78C96.2456 40.7893 95.5308 41.7063 94.6354 42.5006C93.7401 43.2804 92.6642 43.8942 91.4078 44.3419C90.1514 44.7751 88.7001 44.9917 87.0538 44.9917ZM89.6965 38.6231C91.054 38.6231 92.2526 38.3559 93.2924 37.8216C94.3322 37.2729 95.1481 36.5363 95.7402 35.6121C96.3323 34.6879 96.6283 33.6409 96.6283 32.4711V28.9402C96.3395 29.128 95.9424 29.3013 95.4369 29.4601C94.9459 29.6045 94.3899 29.7417 93.769 29.8717C93.148 29.9872 92.527 30.0955 91.906 30.1966C91.2851 30.2833 90.7218 30.3627 90.2164 30.4349C89.1333 30.5938 88.1874 30.8465 87.3787 31.1931C86.57 31.5397 85.9418 32.009 85.4941 32.6011C85.0464 33.1787 84.8226 33.9008 84.8226 34.7673C84.8226 36.0237 85.2775 36.984 86.1873 37.6483C87.1115 38.2982 88.2813 38.6231 89.6965 38.6231ZM112.951 44.3635V11.0908H121.897V16.8962H122.244C122.85 14.8311 123.868 13.2714 125.298 12.2172C126.728 11.1486 128.374 10.6142 130.237 10.6142C130.699 10.6142 131.197 10.6431 131.731 10.7009C132.266 10.7586 132.735 10.8381 133.14 10.9392V19.1274C132.706 18.9974 132.107 18.8819 131.342 18.7808C130.576 18.6797 129.876 18.6292 129.24 18.6292C127.883 18.6292 126.67 18.9252 125.601 19.5173C124.547 20.0949 123.709 20.9037 123.088 21.9434C122.482 22.9832 122.179 24.1818 122.179 25.5393V44.3635H112.951ZM148.622 44.9051C146.095 44.9051 143.806 44.2552 141.756 42.9555C139.719 41.6413 138.102 39.7134 136.903 37.1718C135.719 34.6157 135.127 31.4819 135.127 27.7705C135.127 23.958 135.741 20.7881 136.968 18.2609C138.196 15.7192 139.828 13.8202 141.864 12.5638C143.915 11.293 146.16 10.6576 148.601 10.6576C150.464 10.6576 152.016 10.9753 153.258 11.6107C154.514 12.2317 155.525 13.0115 156.291 13.9502C157.071 14.8744 157.663 15.7842 158.067 16.6796H158.349V-0.000112295H167.555V44.3635H158.457V39.0347H158.067C157.634 39.9589 157.02 40.876 156.226 41.7858C155.446 42.6811 154.428 43.4248 153.171 44.0169C151.929 44.609 150.413 44.9051 148.622 44.9051ZM151.547 37.5617C153.034 37.5617 154.291 37.1573 155.316 36.3486C156.356 35.5255 157.15 34.3774 157.699 32.9044C158.262 31.4314 158.544 29.7056 158.544 27.7272C158.544 25.7487 158.269 24.0302 157.72 22.5716C157.172 21.1131 156.377 19.9866 155.338 19.1924C154.298 18.3981 153.034 18.001 151.547 18.001C150.03 18.001 148.752 18.4125 147.713 19.2357C146.673 20.0588 145.886 21.1997 145.351 22.6583C144.817 24.1168 144.55 25.8065 144.55 27.7272C144.55 29.6623 144.817 31.3736 145.351 32.861C145.9 34.3341 146.687 35.4894 147.713 36.3269C148.752 37.1501 150.03 37.5617 151.547 37.5617Z" fill="black"/>
</svg>
