<svg width="99" height="48" viewBox="0 0 99 48" fill="none" xmlns="http://www.w3.org/2000/svg">
<rect x="0.5" y="0.5" width="98" height="47" rx="7.5" stroke="#2A3647"/>
<path d="M25.4091 30V18.3636H29.4773C30.2879 18.3636 30.9564 18.5038 31.483 18.7841C32.0095 19.0606 32.4015 19.4337 32.6591 19.9034C32.9167 20.3693 33.0455 20.8864 33.0455 21.4545C33.0455 21.9545 32.9564 22.3674 32.7784 22.6932C32.6042 23.0189 32.3731 23.2765 32.0852 23.4659C31.8011 23.6553 31.4924 23.7955 31.1591 23.8864V24C31.5152 24.0227 31.8731 24.1477 32.233 24.375C32.5928 24.6023 32.8939 24.928 33.1364 25.3523C33.3788 25.7765 33.5 26.2955 33.5 26.9091C33.5 27.4924 33.3674 28.017 33.1023 28.483C32.8371 28.9489 32.4186 29.3182 31.8466 29.5909C31.2746 29.8636 30.5303 30 29.6136 30H25.4091ZM26.8182 28.75H29.6136C30.5341 28.75 31.1875 28.572 31.5739 28.2159C31.964 27.8561 32.1591 27.4205 32.1591 26.9091C32.1591 26.5152 32.0587 26.1515 31.858 25.8182C31.6572 25.4811 31.3712 25.2121 31 25.0114C30.6288 24.8068 30.1894 24.7045 29.6818 24.7045H26.8182V28.75ZM26.8182 23.4773H29.4318C29.8561 23.4773 30.2386 23.3939 30.5795 23.2273C30.9242 23.0606 31.197 22.8258 31.3977 22.5227C31.6023 22.2197 31.7045 21.8636 31.7045 21.4545C31.7045 20.9432 31.5265 20.5095 31.1705 20.1534C30.8144 19.7936 30.25 19.6136 29.4773 19.6136H26.8182V23.4773ZM41.1335 26.4318V21.2727H42.4744V30H41.1335V28.5227H41.0426C40.8381 28.9659 40.5199 29.3428 40.0881 29.6534C39.6563 29.9602 39.1108 30.1136 38.4517 30.1136C37.9062 30.1136 37.4214 29.9943 36.9972 29.7557C36.5729 29.5133 36.2396 29.1496 35.9972 28.6648C35.7547 28.1761 35.6335 27.5606 35.6335 26.8182V21.2727H36.9744V26.7273C36.9744 27.3636 37.1525 27.8712 37.5085 28.25C37.8684 28.6288 38.3267 28.8182 38.8835 28.8182C39.2169 28.8182 39.5559 28.733 39.9006 28.5625C40.2491 28.392 40.5407 28.1307 40.7756 27.7784C41.0142 27.4261 41.1335 26.9773 41.1335 26.4318ZM48.7259 21.2727V22.4091H44.2031V21.2727H48.7259ZM45.5213 19.1818H46.8622V27.5C46.8622 27.8788 46.9171 28.1629 47.027 28.3523C47.1406 28.5379 47.2846 28.6629 47.4588 28.7273C47.6368 28.7879 47.8243 28.8182 48.0213 28.8182C48.169 28.8182 48.2902 28.8106 48.3849 28.7955C48.4796 28.7765 48.5554 28.7614 48.6122 28.75L48.8849 29.9545C48.794 29.9886 48.6671 30.0227 48.5043 30.0568C48.3414 30.0947 48.1349 30.1136 47.8849 30.1136C47.5062 30.1136 47.1349 30.0322 46.7713 29.8693C46.4115 29.7064 46.1122 29.4583 45.8736 29.125C45.6387 28.7917 45.5213 28.3712 45.5213 27.8636V19.1818ZM54.5384 21.2727V22.4091H50.0156V21.2727H54.5384ZM51.3338 19.1818H52.6747V27.5C52.6747 27.8788 52.7296 28.1629 52.8395 28.3523C52.9531 28.5379 53.0971 28.6629 53.2713 28.7273C53.4493 28.7879 53.6368 28.8182 53.8338 28.8182C53.9815 28.8182 54.1027 28.8106 54.1974 28.7955C54.2921 28.7765 54.3679 28.7614 54.4247 28.75L54.6974 29.9545C54.6065 29.9886 54.4796 30.0227 54.3168 30.0568C54.1539 30.0947 53.9474 30.1136 53.6974 30.1136C53.3187 30.1136 52.9474 30.0322 52.5838 29.8693C52.224 29.7064 51.9247 29.4583 51.6861 29.125C51.4512 28.7917 51.3338 28.3712 51.3338 27.8636V19.1818ZM60.0071 30.1818C59.2192 30.1818 58.5279 29.9943 57.9332 29.6193C57.3423 29.2443 56.8802 28.7197 56.5469 28.0455C56.2173 27.3712 56.0526 26.5833 56.0526 25.6818C56.0526 24.7727 56.2173 23.9792 56.5469 23.3011C56.8802 22.6231 57.3423 22.0966 57.9332 21.7216C58.5279 21.3466 59.2192 21.1591 60.0071 21.1591C60.795 21.1591 61.4844 21.3466 62.0753 21.7216C62.67 22.0966 63.1321 22.6231 63.4616 23.3011C63.795 23.9792 63.9616 24.7727 63.9616 25.6818C63.9616 26.5833 63.795 27.3712 63.4616 28.0455C63.1321 28.7197 62.67 29.2443 62.0753 29.6193C61.4844 29.9943 60.795 30.1818 60.0071 30.1818ZM60.0071 28.9773C60.6056 28.9773 61.098 28.8239 61.4844 28.517C61.8707 28.2102 62.1567 27.8068 62.3423 27.3068C62.5279 26.8068 62.6207 26.2652 62.6207 25.6818C62.6207 25.0985 62.5279 24.5549 62.3423 24.0511C62.1567 23.5473 61.8707 23.1402 61.4844 22.8295C61.098 22.5189 60.6056 22.3636 60.0071 22.3636C59.4086 22.3636 58.9162 22.5189 58.5298 22.8295C58.1435 23.1402 57.8575 23.5473 57.6719 24.0511C57.4863 24.5549 57.3935 25.0985 57.3935 25.6818C57.3935 26.2652 57.4863 26.8068 57.6719 27.3068C57.8575 27.8068 58.1435 28.2102 58.5298 28.517C58.9162 28.8239 59.4086 28.9773 60.0071 28.9773ZM67.3494 24.75V30H66.0085V21.2727H67.304V22.6364H67.4176C67.6222 22.1932 67.9328 21.8371 68.3494 21.5682C68.7661 21.2955 69.304 21.1591 69.9631 21.1591C70.554 21.1591 71.071 21.2803 71.5142 21.5227C71.9574 21.7614 72.3021 22.125 72.5483 22.6136C72.7945 23.0985 72.9176 23.7121 72.9176 24.4545V30H71.5767V24.5455C71.5767 23.8598 71.3987 23.3258 71.0426 22.9432C70.6866 22.5568 70.1979 22.3636 69.5767 22.3636C69.1487 22.3636 68.7661 22.4564 68.429 22.642C68.0956 22.8277 67.8324 23.0985 67.6392 23.4545C67.446 23.8106 67.3494 24.2424 67.3494 24.75Z" fill="#2A3647"/>
</svg>
