<svg width="107" height="56" viewBox="0 0 107 56" fill="none" xmlns="http://www.w3.org/2000/svg">
<g filter="url(#filter0_d_301_1823)">
<rect x="4" width="99" height="48" rx="8" fill="#091931"/>
<path d="M29.4091 30V18.3636H33.4773C34.2879 18.3636 34.9564 18.5038 35.483 18.7841C36.0095 19.0606 36.4015 19.4337 36.6591 19.9034C36.9167 20.3693 37.0455 20.8864 37.0455 21.4545C37.0455 21.9545 36.9564 22.3674 36.7784 22.6932C36.6042 23.0189 36.3731 23.2765 36.0852 23.4659C35.8011 23.6553 35.4924 23.7955 35.1591 23.8864V24C35.5152 24.0227 35.8731 24.1477 36.233 24.375C36.5928 24.6023 36.8939 24.928 37.1364 25.3523C37.3788 25.7765 37.5 26.2955 37.5 26.9091C37.5 27.4924 37.3674 28.017 37.1023 28.483C36.8371 28.9489 36.4186 29.3182 35.8466 29.5909C35.2746 29.8636 34.5303 30 33.6136 30H29.4091ZM30.8182 28.75H33.6136C34.5341 28.75 35.1875 28.572 35.5739 28.2159C35.964 27.8561 36.1591 27.4205 36.1591 26.9091C36.1591 26.5152 36.0587 26.1515 35.858 25.8182C35.6572 25.4811 35.3712 25.2121 35 25.0114C34.6288 24.8068 34.1894 24.7045 33.6818 24.7045H30.8182V28.75ZM30.8182 23.4773H33.4318C33.8561 23.4773 34.2386 23.3939 34.5795 23.2273C34.9242 23.0606 35.197 22.8258 35.3977 22.5227C35.6023 22.2197 35.7045 21.8636 35.7045 21.4545C35.7045 20.9432 35.5265 20.5095 35.1705 20.1534C34.8144 19.7936 34.25 19.6136 33.4773 19.6136H30.8182V23.4773ZM45.1335 26.4318V21.2727H46.4744V30H45.1335V28.5227H45.0426C44.8381 28.9659 44.5199 29.3428 44.0881 29.6534C43.6563 29.9602 43.1108 30.1136 42.4517 30.1136C41.9062 30.1136 41.4214 29.9943 40.9972 29.7557C40.5729 29.5133 40.2396 29.1496 39.9972 28.6648C39.7547 28.1761 39.6335 27.5606 39.6335 26.8182V21.2727H40.9744V26.7273C40.9744 27.3636 41.1525 27.8712 41.5085 28.25C41.8684 28.6288 42.3267 28.8182 42.8835 28.8182C43.2169 28.8182 43.5559 28.733 43.9006 28.5625C44.2491 28.392 44.5407 28.1307 44.7756 27.7784C45.0142 27.4261 45.1335 26.9773 45.1335 26.4318ZM52.7259 21.2727V22.4091H48.2031V21.2727H52.7259ZM49.5213 19.1818H50.8622V27.5C50.8622 27.8788 50.9171 28.1629 51.027 28.3523C51.1406 28.5379 51.2846 28.6629 51.4588 28.7273C51.6368 28.7879 51.8243 28.8182 52.0213 28.8182C52.169 28.8182 52.2902 28.8106 52.3849 28.7955C52.4796 28.7765 52.5554 28.7614 52.6122 28.75L52.8849 29.9545C52.794 29.9886 52.6671 30.0227 52.5043 30.0568C52.3414 30.0947 52.1349 30.1136 51.8849 30.1136C51.5062 30.1136 51.1349 30.0322 50.7713 29.8693C50.4115 29.7064 50.1122 29.4583 49.8736 29.125C49.6387 28.7917 49.5213 28.3712 49.5213 27.8636V19.1818ZM58.5384 21.2727V22.4091H54.0156V21.2727H58.5384ZM55.3338 19.1818H56.6747V27.5C56.6747 27.8788 56.7296 28.1629 56.8395 28.3523C56.9531 28.5379 57.0971 28.6629 57.2713 28.7273C57.4493 28.7879 57.6368 28.8182 57.8338 28.8182C57.9815 28.8182 58.1027 28.8106 58.1974 28.7955C58.2921 28.7765 58.3679 28.7614 58.4247 28.75L58.6974 29.9545C58.6065 29.9886 58.4796 30.0227 58.3168 30.0568C58.1539 30.0947 57.9474 30.1136 57.6974 30.1136C57.3187 30.1136 56.9474 30.0322 56.5838 29.8693C56.224 29.7064 55.9247 29.4583 55.6861 29.125C55.4512 28.7917 55.3338 28.3712 55.3338 27.8636V19.1818ZM64.0071 30.1818C63.2192 30.1818 62.5279 29.9943 61.9332 29.6193C61.3423 29.2443 60.8802 28.7197 60.5469 28.0455C60.2173 27.3712 60.0526 26.5833 60.0526 25.6818C60.0526 24.7727 60.2173 23.9792 60.5469 23.3011C60.8802 22.6231 61.3423 22.0966 61.9332 21.7216C62.5279 21.3466 63.2192 21.1591 64.0071 21.1591C64.795 21.1591 65.4844 21.3466 66.0753 21.7216C66.67 22.0966 67.1321 22.6231 67.4616 23.3011C67.795 23.9792 67.9616 24.7727 67.9616 25.6818C67.9616 26.5833 67.795 27.3712 67.4616 28.0455C67.1321 28.7197 66.67 29.2443 66.0753 29.6193C65.4844 29.9943 64.795 30.1818 64.0071 30.1818ZM64.0071 28.9773C64.6056 28.9773 65.098 28.8239 65.4844 28.517C65.8707 28.2102 66.1567 27.8068 66.3423 27.3068C66.5279 26.8068 66.6207 26.2652 66.6207 25.6818C66.6207 25.0985 66.5279 24.5549 66.3423 24.0511C66.1567 23.5473 65.8707 23.1402 65.4844 22.8295C65.098 22.5189 64.6056 22.3636 64.0071 22.3636C63.4086 22.3636 62.9162 22.5189 62.5298 22.8295C62.1435 23.1402 61.8575 23.5473 61.6719 24.0511C61.4863 24.5549 61.3935 25.0985 61.3935 25.6818C61.3935 26.2652 61.4863 26.8068 61.6719 27.3068C61.8575 27.8068 62.1435 28.2102 62.5298 28.517C62.9162 28.8239 63.4086 28.9773 64.0071 28.9773ZM71.3494 24.75V30H70.0085V21.2727H71.304V22.6364H71.4176C71.6222 22.1932 71.9328 21.8371 72.3494 21.5682C72.7661 21.2955 73.304 21.1591 73.9631 21.1591C74.554 21.1591 75.071 21.2803 75.5142 21.5227C75.9574 21.7614 76.3021 22.125 76.5483 22.6136C76.7945 23.0985 76.9176 23.7121 76.9176 24.4545V30H75.5767V24.5455C75.5767 23.8598 75.3987 23.3258 75.0426 22.9432C74.6866 22.5568 74.1979 22.3636 73.5767 22.3636C73.1487 22.3636 72.7661 22.4564 72.429 22.642C72.0956 22.8277 71.8324 23.0985 71.6392 23.4545C71.446 23.8106 71.3494 24.2424 71.3494 24.75Z" fill="white"/>
</g>
<defs>
<filter id="filter0_d_301_1823" x="0" y="0" width="107" height="56" filterUnits="userSpaceOnUse" color-interpolation-filters="sRGB">
<feFlood flood-opacity="0" result="BackgroundImageFix"/>
<feColorMatrix in="SourceAlpha" type="matrix" values="0 0 0 0 0 0 0 0 0 0 0 0 0 0 0 0 0 0 127 0" result="hardAlpha"/>
<feOffset dy="4"/>
<feGaussianBlur stdDeviation="2"/>
<feComposite in2="hardAlpha" operator="out"/>
<feColorMatrix type="matrix" values="0 0 0 0 0 0 0 0 0 0 0 0 0 0 0 0 0 0 0.25 0"/>
<feBlend mode="normal" in2="BackgroundImageFix" result="effect1_dropShadow_301_1823"/>
<feBlend mode="normal" in="SourceGraphic" in2="effect1_dropShadow_301_1823" result="shape"/>
</filter>
</defs>
</svg>
